<?xml version="1.0" encoding="UTF-8" standalone="no"?>
<svg
   xmlns:dc="http://purl.org/dc/elements/1.1/"
   xmlns:cc="http://creativecommons.org/ns#"
   xmlns:rdf="http://www.w3.org/1999/02/22-rdf-syntax-ns#"
   xmlns:svg="http://www.w3.org/2000/svg"
   xmlns="http://www.w3.org/2000/svg"
   xmlns:sodipodi="http://sodipodi.sourceforge.net/DTD/sodipodi-0.dtd"
   xmlns:inkscape="http://www.inkscape.org/namespaces/inkscape"
   viewBox="0 0 4.779601 4.0314614"
   width="796.60016"
   height="671.91022"
   id="svg2"
   version="1.1"
   inkscape:version="0.47 r22583"
   sodipodi:docname="Flag_of_Egypt.svg">
  <metadata
     id="metadata12">
    <rdf:RDF>
      <cc:Work
         rdf:about="">
        <dc:format>image/svg+xml</dc:format>
        <dc:type
           rdf:resource="http://purl.org/dc/dcmitype/StillImage" />
      </cc:Work>
    </rdf:RDF>
  </metadata>
  <defs
     id="defs10">
    <inkscape:perspective
       sodipodi:type="inkscape:persp3d"
       inkscape:vp_x="0 : 250 : 1"
       inkscape:vp_y="0 : 1000 : 0"
       inkscape:vp_z="1000 : 250 : 1"
       inkscape:persp3d-origin="500 : 166.66667 : 1"
       id="perspective14" />
    <inkscape:perspective
       id="perspective3675"
       inkscape:persp3d-origin="0.5 : 0.33333333 : 1"
       inkscape:vp_z="1 : 0.5 : 1"
       inkscape:vp_y="0 : 1000 : 0"
       inkscape:vp_x="0 : 0.5 : 1"
       sodipodi:type="inkscape:persp3d" />
    <inkscape:perspective
       id="perspective3675-1"
       inkscape:persp3d-origin="0.5 : 0.33333333 : 1"
       inkscape:vp_z="1 : 0.5 : 1"
       inkscape:vp_y="0 : 1000 : 0"
       inkscape:vp_x="0 : 0.5 : 1"
       sodipodi:type="inkscape:persp3d" />
    <inkscape:perspective
       id="perspective2825"
       inkscape:persp3d-origin="0.5 : 0.33333333 : 1"
       inkscape:vp_z="1 : 0.5 : 1"
       inkscape:vp_y="0 : 1000 : 0"
       inkscape:vp_x="0 : 0.5 : 1"
       sodipodi:type="inkscape:persp3d" />
  </defs>
  <sodipodi:namedview
     pagecolor="#ffffff"
     bordercolor="#666666"
     borderopacity="1"
     objecttolerance="10"
     gridtolerance="10"
     guidetolerance="10"
     inkscape:pageopacity="0"
     inkscape:pageshadow="2"
     inkscape:window-width="1280"
     inkscape:window-height="1004"
     id="namedview8"
     showgrid="false"
     inkscape:zoom="0.70710678"
     inkscape:cx="492.6054"
     inkscape:cy="328.99013"
     inkscape:window-x="-8"
     inkscape:window-y="-8"
     inkscape:window-maximized="1"
     inkscape:current-layer="svg2" />
  <path
     style="fill:#ffffff;stroke:#cc0000;stroke-width:0.0216;stroke-miterlimit:4;stroke-opacity:1;stroke-dasharray:none"
     d="m 2.502675,0.0108 -0.037313,0.032625 -0.0465,0.00225 -0.015,0.0425625 -0.0525,0.0345 -3.75e-4,0.033 -0.064875,0.0463125 -0.00825,0.079875 -0.01575,0.0369375 -0.090938,-0.0075 -0.024938,-0.022875 -0.030562,0.030375 -0.0645,-0.049875 -0.022875,0.009 -0.042375,0 L 1.9414875,0.32805 1.926675,0.36705 1.86555,0.400425 1.8303,0.3799875 1.8063,0.3948 1.80818,0.4763625 1.77668,0.51705 1.76918,0.54855 1.77574,0.574425 1.750615,0.6004875 1.748745,0.63555 l -0.02025,0.0298125 0.00188,0.0148125 0.040687,0.0166875 0.037125,-0.009375 0.033187,0.013125 0.0315,0.001875 0.018562,0.0315 L 1.8766125,0.750675 1.832175,0.7692375 1.8117375,0.7951125 1.8063,0.84705 1.7877375,0.8618625 1.772925,0.848925 1.7358,0.8322375 l -0.028687,0.0195 -0.052875,-0.0195 -0.025875,0.024 -0.00656,0.0463125 -0.036,0.0594375 -0.042563,0.025875 -0.087187,0.005625 -0.00731,0.02025 -0.015,0.012938 -0.02775,0.022312 -0.00544,0.051937 -0.027937,0.016687 -0.00356,0.038813 0.00544,0.024188 -0.00731,0.038812 0.018563,0.033375 -0.00938,0.061125 -0.03525,0.012938 -0.024,0.024188 0.00188,0.06675 -0.039937,0.045375 0.00319,0.0345 0.020063,0.014437 0.048188,-0.018375 0.00544,0.035062 0.016687,0.00375 0.022312,0.029625 L 1.38013,1.5863615 1.382,1.6399865 1.34675,1.6364265 1.3263,1.6548 1.2708,1.6512375 1.2503625,1.6178625 1.2633,1.601175 1.2597375,1.5863625 1.2799875,1.5678 1.2616125,1.55205 1.2492375,1.5267375 1.2271125,1.51305 1.1958,1.552425 1.135425,1.5498 1.1119875,1.54455 1.0977375,1.5979875 1.024425,1.650675 0.9826125,1.6253625 0.9318,1.631175 0.923175,1.649363 0.9079875,1.664363 0.923175,1.706926 0.92055,1.727926 0.9123,1.764489 0.8637375,1.768609 0.8539875,1.751359 0.8202375,1.752669 0.8041125,1.76205 0.7818,1.77255 0.6979875,1.8274875 0.6721125,1.81455 0.6496125,1.820925 0.6424875,1.7978625 0.6218625,1.7671125 0.59055,1.7618625 0.5538,1.7802375 0.48705,1.7673 0.4542375,1.7802375 0.4188,1.7794875 0.4009875,1.7836125 0.38355,1.7828625 0.359925,1.7933625 0.3436125,1.7958 0.317925,1.7749875 l -0.0444375,-0.01575 -0.002625,0.039375 0.018375,0.031313 0.001125,0.06375 0.014625,0.024 -0.002812,0.072188 0.021,0.091687 0.0105,0.054937 0.028875,0.078563 0.013125,0.044625 0.0105,0.070688 0.01875,0.023437 0.002063,0.026437 0.0105,0.013125 L 0.43305,2.4228 0.4081125,2.4841125 0.4278,2.5182375 l 0.005437,0.019125 0,0.03675 -0.018375,0.0315 0.009375,0.029625 0.001688,0.145875 -0.09075,0.0705 -0.0500625,0.00188 -0.0759375,0.029625 -0.063,0.040687 -0.039,0.061125 -0.0315,0.029625 -0.064875,0.09825 0.0185625,0.0075 -0.00375,0.025875 0.0075,0.018563 0.0444375,0.00731 0.025875,0.014813 0.0260625,0.022312 0.029625,-0.00375 0.029625,0.057562 0.029625,-0.00188 0.02775,0.053625 0.005625,0.053812 -0.02775,0.050063 -0.001875,0.024 -0.0148125,0.05194 0.0110625,0.014813 0.001875,0.025875 -0.042375,0.02775 0.00375,0.050062 -0.015,0.037125 0.00375,0.077812 0.040875,0.025875 L 0.21855,3.74655 0.2018625,3.68355 0.2223,3.6612375 l 0.0425625,-0.00731 0.0575625,0.00919 0.036,0.011062 0.012,0.033375 0.0185625,0.00375 0.165,-0.1168125 0.0129375,-0.063 0.0481875,-0.0555 0.1314375,-0.0075 0.039,0.013125 0.029625,-0.00656 0.0834375,-9.375e-4 0.100875,-0.037125 0.0260625,0.00188 0.021188,-0.00544 0.045375,0.029625 0.1974375,0.012 0.0315,-0.00825 0.075937,0.025875 0.077813,0 0.040687,0.046312 0.1335,0.00187 0.00375,0.036938 0.09075,-0.00169 0.1610625,0.066563 0.046312,-0.022125 0.085125,0.011062 -0.00375,0.072188 0.00956,0.00937 0.042563,-0.00188 -0.0075,0.051937 0.079688,0.00188 0.024188,-0.024188 0.1018125,0.024188 0.018562,0.014813 -0.024,0.064688 L 2.312175,3.874425 2.3418,3.8298 2.3434875,3.779925 2.3733,3.748425 2.4214875,3.7909875 2.50305,3.7872375 2.5308,3.73905 2.56605,3.716925 l 0.0075,0.029625 0.042562,0.0315 0.00638,0.0435 0.04725,-0.032437 0.029625,-0.0075 0.022125,0.01125 0.039,-0.00188 0.00563,0.0555 0.018375,0.044438 0.01875,-0.00356 0.0165,0.033375 0.015,-0.016688 -0.00206,-0.044625 0.033375,-0.0555 0.029625,-0.018562 0.053812,0.00187 0.02025,-0.040687 0.033375,-0.016688 0.039,0.02025 0.011062,0.0315 0.026813,0.03525 -0.00825,0.055687 0.029625,0.025875 0.00919,0.029625 0.020437,0.016688 0.033375,-0.020437 0.03525,0.00562 0.02025,-0.050062 0.0315,9.375e-4 0.014813,-0.028687 0.048188,-0.012938 0.016687,0.040688 0.0585,0.00187 0.022125,-0.024 0.020438,0.012 0.021187,-0.02325 0.085313,-0.010125 0.029625,0.00469 0.029625,0.040687 0.0435,0.021375 -7.5e-4,0.049125 0.033187,0.03975 0.0315,0 0.01125,0.028687 0.044438,0 0.00731,-0.0315 0.021375,-0.0195 0.00656,-0.028688 L 3.781425,3.905925 3.7609875,3.8779875 3.7758,3.8558625 3.7591125,3.839175 3.7572375,3.7983 3.7323,3.784425 l 9.375e-4,-0.019313 -0.00469,-0.0195 0.020438,-0.0315 0.00825,-0.049125 0.0195,-0.00563 0.00638,-0.01575 -0.00544,-0.032438 0.018563,-0.014812 -0.00375,-0.02775 L 3.83505,3.4999875 3.8554875,3.4983 3.8628,3.461175 3.90555,3.4353 3.91099,3.409238 l 0.033375,0.00375 0,-0.018562 L 3.927675,3.36855 3.93705,3.342675 4.03155,3.3333 4.0684875,3.359175 4.092675,3.3601125 4.112925,3.3203625 4.1629875,3.3018 4.344675,3.299925 4.345425,3.252675 4.313175,3.2277375 4.3113,3.1758 4.2732375,3.169425 4.246425,3.1294875 l 0.014812,-0.018563 0.00544,-0.024 -0.014813,-0.02775 0.00188,-0.059438 -0.022125,-0.018375 0.00375,-0.016687 0.00169,-0.022312 0.026063,-0.00563 -0.029625,-0.024 L 4.2168,2.87205 4.1963625,2.8441125 4.1907375,2.8293 4.2259875,2.807175 4.2297375,2.7552375 4.20555,2.7274875 4.2038625,2.716425 4.20555,2.6941125 4.151925,2.68305 l -0.03525,-0.0315 0,-0.01125 -0.00563,-0.038812 -0.05175,-0.040875 0.022125,-0.02025 0,-0.02775 0.0315,-0.01125 -0.00731,-0.02775 0.014812,-0.06675 0.081563,0.00563 0.024,-0.022312 0.03525,0.016687 0.044437,0.00188 0.00919,0.055687 0.033375,0.00188 0.0075,0.00544 0.02775,0.018562 0.037125,-0.018562 0.036938,0.012938 0.027937,0.0075 0.0165,-0.024188 0.016687,0.00206 0.013125,-0.025875 0.0315,0 0.02025,-0.044437 0.029625,0.00188 0.037125,-0.0705 -0.014812,-0.014813 0,-0.024 L 4.702424,2.291945 4.704114,2.270008 4.768801,2.264378 4.757739,2.242253 4.761489,2.153378 4.731864,2.160688 4.71705,2.13105 4.687425,2.1383625 4.6743,2.1181125 4.644675,2.1068625 4.603987,2.0809875 l -0.00412,-0.06225 0.039,-0.028687 -0.021,-0.034125 -0.049875,0.00113 -0.01575,-0.024938 -0.06675,-0.016125 -0.03675,-0.028125 -0.02175,-0.00375 L 4.329675,1.92255 4.30305,1.9047375 4.283925,1.9073625 4.2723,1.8993 4.294612,1.849238 l 0.00919,-0.061125 0.00356,-0.04125 -0.00919,-0.0495 -0.0285,0.00206 -0.012188,-0.035438 -0.03525,0 -0.029625,-0.024188 -0.036,1.872e-4 -0.062812,-0.051 -0.049875,-0.028875 -0.00787,-0.089063 -0.036563,-0.0315 0,-0.034125 -0.0315,-0.031313 -0.030187,-0.0045 -0.017438,-0.0225 0.02025,-0.05925 0.018563,-0.024188 0.00188,-0.02775 -0.05325,-0.00319 -0.032062,-0.011625 0.00188,-0.03525 -0.044437,-0.036938 -0.070312,-0.029625 0.00356,-0.044625 0.018563,-0.029625 0,-0.038813 0.0075,-0.0110625 0.0315,-0.013125 0.012938,-0.033375 -0.00375,-0.029625 0.039,0.001875 L 3.85175,0.8506042 3.85925,0.8254792 3.812938,0.7763542 3.805438,0.7356667 3.7925,0.7328547 l -0.02775,-0.02025 9.375e-4,-0.03525 0.026813,-0.0361875 0.026813,-0.01575 0.00562,-0.0195 L 3.801675,0.5800497 3.7998,0.5708622 3.813675,0.5447997 3.80355,0.5346747 3.81011,0.5236122 3.81199,0.4559247 3.79249,0.4345497 3.77299,0.4336122 3.747115,0.4577997 3.72574,0.4568622 3.711865,0.4030497 3.676615,0.4058617 3.655425,0.3799872 3.6563625,0.353925 3.600675,0.326175 3.5988,0.2928 3.5089875,0.2688 3.475425,0.2434875 3.438675,0.277425 3.3784875,0.2551125 3.340425,0.2577375 3.2933625,0.2866125 3.294675,0.32205 3.2553,0.3128625 3.1938,0.3483 3.149175,0.3993 3.0811125,0.3286125 3.0784875,0.3154875 3.0953625,0.2629875 3.098925,0.22605 3.1178625,0.221175 3.1137375,0.189675 3.024675,0.152925 2.9793,0.12405 2.9251125,0.1163625 2.837925,0.1668 2.8354875,0.1906125 2.7978,0.1849875 2.774363,0.1549875 2.769483,0.11655 2.748483,0.0938625 2.743603,0.069675 2.696353,0.0619875 2.620603,0.0691125 2.5969875,0.1038 2.502675,0.0108 z"
     id="rect4" />
  <path
     style="fill:#cc0000"
     d="m 1.320675,1.3474875 -0.00356,0.00356 0.00188,0.06675 -0.039937,0.045375 0.00319,0.0345 0.020063,0.014437 0.048188,-0.018375 0.00544,0.035062 0.016687,0.00375 0.022312,0.029625 -0.014812,0.024187 0.00187,0.053625 -0.03525,-0.00356 L 1.3263,1.6548 1.2708,1.6512375 1.2503625,1.6178625 1.2633,1.601175 1.2597375,1.5863625 1.2799875,1.5678 1.2616125,1.55205 1.2492375,1.5267375 1.2271125,1.51305 1.1958,1.552425 1.135425,1.5498 1.1119875,1.54455 1.0977375,1.5979875 1.024425,1.650675 0.9826125,1.6253625 0.9318,1.631175 0.923175,1.649363 0.9079875,1.664363 0.923175,1.706926 0.92055,1.727926 0.9123,1.764489 0.8637375,1.768609 0.8539875,1.751359 0.8202375,1.752669 0.8041125,1.76205 0.7818,1.77255 0.6979875,1.8274875 0.6721125,1.81455 0.6496125,1.820925 0.6424875,1.7978625 0.6218625,1.7671125 0.59055,1.7618625 0.5538,1.7802375 0.48705,1.7673 0.4542375,1.7802375 0.4188,1.7794875 0.4009875,1.7836125 0.38355,1.7828625 0.359925,1.7933625 0.3436125,1.7958 0.317925,1.7749875 l -0.0444375,-0.01575 -0.002625,0.039375 0.018375,0.031313 0.001125,0.06375 0.014625,0.024 -0.002812,0.072188 0.021,0.091687 0.0105,0.054937 0.028875,0.078563 0.013125,0.044625 0.0105,0.070688 0.01875,0.023437 0.002063,0.026437 0.0105,0.013125 L 0.43305,2.4228 0.4081125,2.4841125 0.4278,2.5182375 l 0.005437,0.019125 0,0.03675 -0.018375,0.0315 0.009375,0.029625 5.622e-4,0.048938 3.7325625,0 -0.00544,-0.00113 -0.03525,-0.0315 0,-0.01125 -0.00563,-0.038812 -0.05175,-0.040875 0.022125,-0.02025 0,-0.02775 0.0315,-0.01125 -0.00731,-0.02775 0.014812,-0.06675 0.081562,0.00563 0.024,-0.022312 0.03525,0.016687 0.044437,0.00188 0.00919,0.055687 0.033375,0.00188 0.0075,0.00544 0.02775,0.018562 0.037125,-0.018562 0.036938,0.012938 0.027937,0.0075 0.0165,-0.024188 0.016687,0.00206 0.013125,-0.025875 0.0315,0 0.02025,-0.044437 0.029625,0.00188 0.037125,-0.0705 -0.014812,-0.014813 0,-0.024 0.066937,-3.75e-4 0.00169,-0.021937 0.064687,-0.00563 -0.011062,-0.022125 0.00375,-0.088875 -0.029625,0.00731 -0.014813,-0.029625 -0.029625,0.00731 -0.013125,-0.02025 -0.029625,-0.01125 -0.040688,-0.025875 -0.00413,-0.06225 0.039,-0.028687 -0.021,-0.034125 -0.049875,0.00113 -0.01575,-0.024938 -0.06675,-0.016125 -0.03675,-0.028125 -0.02175,-0.00375 -0.097313,0.038437 -0.026625,-0.017813 -0.019125,0.00263 -0.011625,-0.00806 0.022313,-0.050062 0.00919,-0.061125 0.00356,-0.04125 -0.00919,-0.0495 -0.0285,0.00206 -0.012188,-0.035438 -0.03525,0 -0.029625,-0.024188 -0.036,1.872e-4 -0.062812,-0.051 -0.049875,-0.028875 -0.00787,-0.089063 -0.036563,-0.0315 0,-0.034125 -0.0315,-0.031313 -0.030188,-0.0045 -0.017062,-0.022125 -2.6000625,0 z"
     id="rect6" />
  <path
     style="opacity:0.98999999;fill:#008080;fill-opacity:1;fill-rule:nonzero;stroke:none"
     d="m -10.925701,-1.0727625 0,4.2425625 5.0403765,0 0,-4.2425625 -5.0403765,0 z m 2.6731885,0.148875 0.09431,0.093 0.02363,-0.0346875 0.07575,-0.007125 0.04725,0.007687 0.0049,0.0241875 0.021,0.0226875 0.0049,0.0384375 0.02344,0.03 0.03769,0.005625 0.0024,-0.0238125 0.08719,-0.0504375 0.05419,0.007688 0.04537,0.028875 0.08906,0.03675 0.0041,0.0315 -0.01894,0.004875 -0.0036,0.0369375 -0.01688,0.0525 0.0026,0.013125 0.06806,0.0706875 0.04462,-0.051 0.0615,-0.0354375 0.03937,0.009188 -0.0013,-0.0354375 0.04706,-0.028875 0.03805,-0.002625 0.06019,0.0223125 0.03675,-0.0339375 0.03356,0.0253125 0.08981,0.024 0.0019,0.033375 0.05569,0.02775 -9.38e-4,0.0260625 0.02119,0.025875 0.03525,-0.002812 0.01387,0.053812 0.02138,9.375e-4 0.02587,-0.0241875 0.0195,9.375e-4 0.0195,0.021375 -0.0019,0.0676875 -0.0066,0.0110625 0.01013,0.010125 -0.01388,0.0260625 0.0019,0.009188 0.02325,0.025875 -0.0056,0.0195 -0.02681,0.01575 -0.02681,0.0361875 -9.38e-4,0.03525 0.02775,0.02025 0.01294,0.002812 0.0075,0.0406875 0.04631,0.049125 -0.0075,0.025125 0.02044,0.0703125 -0.039,-0.00187 0.0037,0.029625 -0.01294,0.0333705 -0.0315,0.013125 -0.0075,0.011062 0,0.038812 -0.01856,0.029625 -0.0036,0.044625 0.07031,0.029625 0.04444,0.036938 -0.0019,0.03525 0.03206,0.011625 0.05325,0.00319 -0.0019,0.02775 -0.01856,0.024188 -0.02025,0.05925 0.01744,0.0225 0.03019,0.0045 0.0315,0.031313 0,0.034125 0.03656,0.0315 0.0079,0.089063 0.04988,0.028875 0.06281,0.051 0.036,-1.872e-4 0.02962,0.024188 0.03525,0 0.01219,0.035438 0.0285,-0.00206 0.0092,0.0495 -0.0036,0.04125 -0.0092,0.061125 -0.02231,0.050062 0.01163,0.00788 0.01912,-0.00244 0.02663,0.017812 0.09731,-0.038437 0.02175,0.00375 0.03675,0.028125 0.06675,0.016125 0.01575,0.024938 0.04988,-0.00131 0.021,0.034125 -0.039,0.028687 0.0041,0.06225 0.04069,0.025875 0.02963,0.01125 0.01312,0.02025 0.02963,-0.00731 0.01481,0.029625 0.02962,-0.00731 -0.0038,0.088875 0.01106,0.022125 -0.06469,0.00563 -0.0017,0.021937 -0.06694,3.75e-4 0,0.024 0.01481,0.014812 -0.03712,0.0705 -0.02962,-0.00187 -0.02025,0.044437 -0.0315,0 -0.01313,0.025875 -0.01667,-0.0019 -0.0165,0.024188 -0.02794,-0.0075 -0.03694,-0.012938 -0.03713,0.018563 -0.02775,-0.018563 -0.0075,-0.00544 -0.03337,-0.00188 -0.0092,-0.055687 -0.04444,-0.00188 -0.03525,-0.016688 -0.024,0.022312 -0.08156,-0.00562 -0.01481,0.06675 0.0073,0.02775 -0.0315,0.01125 0,0.02775 -0.02213,0.02025 0.05175,0.040875 0.0056,0.038813 0,0.01125 0.03525,0.0315 0.05363,0.011062 -0.0017,0.022313 0.0017,0.011062 0.02419,0.02775 -0.0038,0.051938 -0.03525,0.022125 0.0056,0.014813 0.02044,0.027937 0.01669,0.040688 0.02963,0.024 -0.02606,0.00562 -0.0017,0.022312 -0.0038,0.016688 0.02212,0.018375 -0.0019,0.059438 0.01481,0.02775 -0.0054,0.024 -0.01481,0.018562 0.02681,0.039938 0.03806,0.00637 0.0019,0.051938 0.03225,0.024938 -7.5e-4,0.04725 -0.181688,0.00188 -0.05006,0.018562 -0.02025,0.03975 -0.02419,-9.375e-4 -0.03694,-0.025875 -0.0945,0.00937 -0.0094,0.025875 0.01669,0.025875 0,0.018562 -0.03338,-0.00375 -0.0054,0.026063 -0.04275,0.025875 -0.0073,0.037125 -0.02044,0.00169 -0.04256,0.068625 0.0038,0.02775 -0.01856,0.014813 0.0054,0.032437 -0.0064,0.01575 -0.0195,0.00563 -0.0083,0.049125 -0.02044,0.0315 0.0047,0.0195 -9.37e-4,0.019312 0.02494,0.013875 0.0019,0.040875 0.01669,0.016687 -0.01481,0.022125 0.02044,0.027938 0.01481,0.035062 -0.0066,0.028688 -0.02137,0.0195 -0.0073,0.0315 -0.04444,0 -0.01125,-0.028688 -0.0315,0 -0.03319,-0.03975 7.5e-4,-0.049125 -0.0435,-0.021375 -0.02963,-0.040688 -0.02962,-0.00469 -0.08531,0.010125 -0.02119,0.02325 -0.02044,-0.012 -0.02212,0.024 -0.0585,-0.00188 -0.01669,-0.040688 -0.04819,0.012938 -0.01481,0.028688 -0.0315,-9.375e-4 -0.02025,0.050062 -0.03525,-0.00562 -0.03338,0.020437 -0.02044,-0.016687 -0.0092,-0.029625 -0.02963,-0.025875 0.0083,-0.055687 -0.02681,-0.03525 -0.01106,-0.0315 -0.039,-0.02025 -0.03338,0.016688 -0.02025,0.040687 -0.05381,-0.00188 -0.02962,0.018563 -0.03337,0.0555 0.0019,0.044625 -0.01481,0.016687 -0.01669,-0.033375 -0.01856,0.00356 -0.01856,-0.044437 -0.0054,-0.0555 -0.039,0.00188 -0.02212,-0.01125 -0.02963,0.0075 -0.04725,0.032437 -0.0066,-0.0435 -0.04256,-0.0315 -0.0075,-0.029625 -0.03525,0.022125 -0.02775,0.048188 -0.08156,0.00375 -0.04819,-0.042563 -0.02963,0.0315 -0.0019,0.049875 -0.02963,0.044625 -0.03506,-0.029813 0.024,-0.064687 -0.01856,-0.014813 -0.101813,-0.024188 -0.02419,0.024188 -0.07969,-0.00188 0.0075,-0.051937 -0.04256,0.00187 -0.0094,-0.00937 0.0037,-0.072188 -0.08531,-0.011062 -0.04631,0.022125 -0.161062,-0.066562 -0.09075,0.00169 -0.0038,-0.036938 -0.1335,-0.00188 -0.04069,-0.046312 -0.07781,0 -0.07594,-0.025875 -0.0315,0.00825 -0.197438,-0.012 -0.04537,-0.029625 -0.02119,0.00544 -0.02606,-0.00188 -0.100875,0.037125 -0.08344,9.375e-4 -0.02962,0.00656 -0.039002,-0.013125 -0.131438,0.0075 -0.04819,0.0555 -0.01294,0.063 -0.165,0.1168125 -0.01856,-0.00375 -0.012,-0.033375 -0.036,-0.011062 -0.05756,-0.00919 -0.04256,0.00731 -0.02044,0.022312 0.01669,0.063 -0.0073,0.00731 -0.04087,-0.025875 -0.0038,-0.077812 0.015,-0.037125 -0.0038,-0.050063 0.04255,-0.027716 -0.0019,-0.025875 -0.01106,-0.014813 0.01481,-0.051937 0.0019,-0.024 0.02775,-0.050063 -0.0056,-0.053812 -0.02775,-0.053625 -0.02963,0.00188 -0.02962,-0.057562 -0.02963,0.00375 -0.02606,-0.022312 -0.02587,-0.014812 -0.04444,-0.00731 -0.0075,-0.018562 0.0038,-0.025875 -0.01856,-0.0075 0.06487,-0.09825 0.0315,-0.029625 0.039,-0.061125 0.063,-0.040688 0.07594,-0.029625 0.05006,-0.00188 0.09075,-0.0705 -0.0017,-0.145875 -0.0094,-0.029625 0.01837,-0.0315 0,-0.03675 -0.0054,-0.019123 -0.01969,-0.034125 0.02494,-0.061312 -0.01556,-0.029438 -0.0105,-0.013125 -0.0021,-0.026438 -0.01875,-0.023437 -0.0105,-0.070688 -0.01312,-0.044625 -0.02887,-0.078562 -0.0105,-0.054937 -0.021,-0.091687 0.0028,-0.0721885 -0.01462,-0.024 -0.0011,-0.06375 -0.01837,-0.0313125 0.0026,-0.039375 0.04444,0.01575 0.02569,0.020812 0.01631,-0.00244 0.02363,-0.0105 0.01744,7.5e-4 0.01781,-0.00412 0.03544,7.5e-4 0.03281,-0.012938 0.06675,0.012938 0.03675,-0.018375 0.03131,0.00525 0.02062,0.03075 0.0071,0.023062 0.0225,-0.00656 0.02588,0.012938 0.083811,-0.054938 0.02231,-0.0105 0.01613,-0.00937 0.03375,-0.00131 0.0098,0.01725 0.04856,-0.00412 0.0083,-0.036563 0.0026,-0.021 -0.01519,-0.042562 0.01519,-0.015 0.0086,-0.018188 0.05081,-0.00581 0.04181,0.025313 0.07331,-0.052688 0.01425,-0.053438 0.02344,0.00525 0.06037,0.00263 0.03131,-0.039375 0.02212,0.013688 0.01238,0.025313 0.01837,0.01575 -0.02025,0.018563 0.0036,0.014812 -0.01294,0.016688 0.02044,0.033375 0.0555,0.00356 0.02044,-0.018375 0.03525,0.00356 -0.0019,-0.053625 0.01481,-0.024188 -0.02231,-0.029625 -0.01669,-0.00375 -0.0054,-0.035062 -0.04819,0.018375 -0.02006,-0.014438 -0.0032,-0.0345 0.03994,-0.045375 -0.0019,-0.06675 0.024,-0.024188 0.03525,-0.012938 0.0094,-0.061125 -0.01856,-0.033375 0.0073,-0.038813 -0.0054,-0.024188 0.0036,-0.038812 0.02794,-0.016687 0.0054,-0.051937 0.02775,-0.022313 0.015,-0.012937 0.0073,-0.02025 0.08719,-0.00562 0.04256,-0.025875 0.036,-0.059437 0.0066,-0.0463125 0.02587,-0.024 0.05288,0.0195 0.02869,-0.0195 0.03713,0.0166875 0.01481,0.0129375 0.01856,-0.0148125 0.0054,-0.0519375 0.02044,-0.025875 0.04444,-0.0185625 0.01481,-0.0166875 -0.01856,-0.0315 -0.0315,-0.001875 -0.03318,-0.0129615 -0.03712,0.009375 -0.04069,-0.0166875 -0.0019,-0.0148125 0.02025,-0.0298125 0.0019,-0.0350625 0.02512,-0.0260625 -0.0066,-0.025875 0.0075,-0.0315 0.0315,-0.0406875 -0.0019,-0.0815625 0.024,-0.0148125 0.03525,0.0204375 0.06113,-0.033375 0.01481,-0.039 0.04444,-0.0500625 0.04237,0 0.02287,-0.009 0.0645,0.049875 0.03056,-0.030375 0.02494,0.022875 0.09094,0.0075 0.01575,-0.0369375 0.0083,-0.079875 0.06487,-0.0463125 3.78e-4,-0.033 0.0525,-0.0345 0.015,-0.0425625 0.0465,-0.00225 0.03731,-0.032625 z"
     id="rect3649" />
</svg>
